<?xml version="1.0" standalone="no"?><svg xmlns:xlink="http://www.w3.org/1999/xlink" xmlns="http://www.w3.org/2000/svg" viewBox="0 0 1920 930.9107191581952" preserveAspectRatio="xMaxYMax slice"><g transform="scale(1.3433055110507868)"><rect x="0" y="0" width="1429.3125" height="693" fill="#f5f5f5"/><rect x="54.140625" y="10.828125" width="21.65625" height="21.65625" fill="#f5f5f5"/><circle cx="70.385" cy="27.075" r="5.415" fill="#f2f2f2"/><rect x="140.765625" y="10.828125" width="21.65625" height="21.65625" fill="#f5f5f5"/><g transform="translate(140.77,10.83) scale(0.5415) rotate(0)"><path fill-rule="evenodd" clip-rule="evenodd" d="M10 20C15.5228 20 20 15.5228 20 10C20 4.47715 15.5228 0 10 0C4.47715 0 0 4.47715 0 10C0 15.5228 4.47715 20 10 20ZM10 17C13.866 17 17 13.866 17 10C17 6.13401 13.866 3 10 3C6.13401 3 3 6.13401 3 10C3 13.866 6.13401 17 10 17Z" fill="#e8e8e8"/></g><circle cx="146.185" cy="27.075" r="5.415" fill="#e4e4e4"/><rect x="184.078125" y="10.828125" width="21.65625" height="21.65625" fill="#f5f5f5"/><polygon points="184.08,21.66 194.91000000000003,32.49 184.08,32.49" fill="#f3f3f3"/><circle cx="200.325" cy="27.075" r="5.415" fill="#f1f1f1"/><rect x="227.390625" y="10.828125" width="21.65625" height="21.65625" fill="#f5f5f5"/><circle cx="243.635" cy="27.075" r="5.415" fill="#e6e6e6"/><rect x="400.640625" y="10.828125" width="21.65625" height="21.65625" fill="#f5f5f5"/><rect x="411.47" y="10.83" width="10.83" height="10.83" fill="#dbdbdb"/><rect x="487.265625" y="10.828125" width="21.65625" height="21.65625" fill="#f5f5f5"/><rect x="530.578125" y="10.828125" width="21.65625" height="21.65625" fill="#f5f5f5"/><rect x="877.078125" y="10.828125" width="21.65625" height="21.65625" fill="#f5f5f5"/><g transform="translate(887.91,10.83) scale(0.5415) rotate(0)"><rect width="2" height="20" fill="#e8e8e8"/><rect x="4" width="2" height="20" fill="#e8e8e8"/><rect x="8" width="2" height="20" fill="#e8e8e8"/><rect x="12" width="2" height="20" fill="#e8e8e8"/><rect x="16" width="2" height="20" fill="#e8e8e8"/></g><circle cx="882.495" cy="27.075" r="5.415" fill="#e5e5e5"/><circle cx="893.3249999999999" cy="27.075" r="5.415" fill="#f2f2f2"/><rect x="920.390625" y="10.828125" width="21.65625" height="21.65625" fill="#f5f5f5"/><g transform="translate(920.39,21.66) scale(0.5415) rotate(0)"><path fill-rule="evenodd" clip-rule="evenodd" d="M10 20C15.5228 20 20 15.5228 20 10C20 4.47715 15.5228 0 10 0C4.47715 0 0 4.47715 0 10C0 15.5228 4.47715 20 10 20ZM10 17C13.866 17 17 13.866 17 10C17 6.13401 13.866 3 10 3C6.13401 3 3 6.13401 3 10C3 13.866 6.13401 17 10 17Z" fill="#f0f0f0"/></g><circle cx="936.635" cy="27.075" r="5.415" fill="#e7e7e7"/><rect x="1136.953125" y="10.828125" width="21.65625" height="21.65625" fill="#f5f5f5"/><g transform="translate(1136.95,10.83) scale(0.5415) rotate(0)"><path fill-rule="evenodd" clip-rule="evenodd" d="M10 20C15.5228 20 20 15.5228 20 10C20 4.47715 15.5228 0 10 0C4.47715 0 0 4.47715 0 10C0 15.5228 4.47715 20 10 20ZM10 17C13.866 17 17 13.866 17 10C17 6.13401 13.866 3 10 3C6.13401 3 3 6.13401 3 10C3 13.866 6.13401 17 10 17Z" fill="#dddddd"/></g><circle cx="1153.195" cy="16.245" r="5.415" fill="#e0e0e0"/><circle cx="1142.365" cy="27.075" r="5.415" fill="#eeeeee"/><circle cx="1153.195" cy="27.075" r="5.415" fill="#f1f1f1"/><rect x="10.828125" y="54.140625" width="21.65625" height="21.65625" fill="#f5f5f5"/><g transform="translate(10.83,54.14) scale(0.5415) rotate(0)"><path fill-rule="evenodd" clip-rule="evenodd" d="M10 20C15.5228 20 20 15.5228 20 10C20 4.47715 15.5228 0 10 0C4.47715 0 0 4.47715 0 10C0 15.5228 4.47715 20 10 20ZM10 17C13.866 17 17 13.866 17 10C17 6.13401 13.866 3 10 3C6.13401 3 3 6.13401 3 10C3 13.866 6.13401 17 10 17Z" fill="#e1e1e1"/></g><polygon points="32.49,54.14 32.49,64.97 21.66,64.97" fill="#f1f1f1"/><g transform="translate(21.66,64.97) scale(0.5415) rotate(0)"><rect width="2" height="20" fill="#ebebeb"/><rect x="4" width="2" height="20" fill="#ebebeb"/><rect x="8" width="2" height="20" fill="#ebebeb"/><rect x="12" width="2" height="20" fill="#ebebeb"/><rect x="16" width="2" height="20" fill="#ebebeb"/></g><rect x="54.140625" y="54.140625" width="21.65625" height="21.65625" fill="#f5f5f5"/><circle cx="70.385" cy="70.385" r="5.415" fill="#efefef"/><rect x="184.078125" y="54.140625" width="21.65625" height="21.65625" fill="#f5f5f5"/><rect x="400.640625" y="54.140625" width="21.65625" height="21.65625" fill="#f5f5f5"/><rect x="487.265625" y="54.140625" width="21.65625" height="21.65625" fill="#f5f5f5"/><g transform="translate(487.27,64.97) scale(0.5415) rotate(0)"><path fill-rule="evenodd" clip-rule="evenodd" d="M10 20C15.5228 20 20 15.5228 20 10C20 4.47715 15.5228 0 10 0C4.47715 0 0 4.47715 0 10C0 15.5228 4.47715 20 10 20ZM10 17C13.866 17 17 13.866 17 10C17 6.13401 13.866 3 10 3C6.13401 3 3 6.13401 3 10C3 13.866 6.13401 17 10 17Z" fill="#dddddd"/></g><rect x="660.515625" y="54.140625" width="21.65625" height="21.65625" fill="#f5f5f5"/><polygon points="660.52,64.97 671.35,75.8 660.52,75.8" fill="#e7e7e7"/><rect x="790.453125" y="54.140625" width="21.65625" height="21.65625" fill="#f5f5f5"/><polygon points="801.2800000000001,54.14 801.2800000000001,64.97 790.45,64.97" fill="#dddddd"/><rect x="1050.328125" y="54.140625" width="21.65625" height="21.65625" fill="#f5f5f5"/><g transform="translate(1050.33,64.97) scale(0.5415) rotate(0)"><rect width="20" height="2" fill="#e0e0e0"/><rect y="4" width="20" height="2" fill="#e0e0e0"/><rect y="8" width="20" height="2" fill="#e0e0e0"/><rect y="12" width="20" height="2" fill="#e0e0e0"/><rect y="16" width="20" height="2" fill="#e0e0e0"/></g><rect x="1136.953125" y="54.140625" width="21.65625" height="21.65625" fill="#f5f5f5"/><rect x="1136.95" y="54.14" width="10.83" height="10.83" fill="#e9e9e9"/><g transform="translate(1136.95,64.97) scale(0.5415) rotate(0)"><rect width="20" height="2" fill="#eaeaea"/><rect y="4" width="20" height="2" fill="#eaeaea"/><rect y="8" width="20" height="2" fill="#eaeaea"/><rect y="12" width="20" height="2" fill="#eaeaea"/><rect y="16" width="20" height="2" fill="#eaeaea"/></g><g transform="translate(1147.78,64.97) scale(0.5415) rotate(0)"><rect width="20" height="2" fill="#f0f0f0"/><rect y="4" width="20" height="2" fill="#f0f0f0"/><rect y="8" width="20" height="2" fill="#f0f0f0"/><rect y="12" width="20" height="2" fill="#f0f0f0"/><rect y="16" width="20" height="2" fill="#f0f0f0"/></g><rect x="270.703125" y="97.453125" width="21.65625" height="21.65625" fill="#f5f5f5"/><g transform="translate(281.53,97.45) scale(0.5415) rotate(0)"><rect width="2" height="20" fill="#e3e3e3"/><rect x="4" width="2" height="20" fill="#e3e3e3"/><rect x="8" width="2" height="20" fill="#e3e3e3"/><rect x="12" width="2" height="20" fill="#e3e3e3"/><rect x="16" width="2" height="20" fill="#e3e3e3"/></g><g transform="translate(281.53,108.28) scale(0.5415) rotate(0)"><rect width="2" height="20" fill="#e7e7e7"/><rect x="4" width="2" height="20" fill="#e7e7e7"/><rect x="8" width="2" height="20" fill="#e7e7e7"/><rect x="12" width="2" height="20" fill="#e7e7e7"/><rect x="16" width="2" height="20" fill="#e7e7e7"/></g><rect x="443.953125" y="97.453125" width="21.65625" height="21.65625" fill="#f5f5f5"/><circle cx="449.365" cy="102.86500000000001" r="5.415" fill="#f2f2f2"/><polygon points="454.78,97.45 465.60999999999996,97.45 454.78,108.28" fill="#dcdcdc"/><g transform="translate(443.95,108.28) scale(0.5415) rotate(0)"><rect width="20" height="2" fill="#efefef"/><rect y="4" width="20" height="2" fill="#efefef"/><rect y="8" width="20" height="2" fill="#efefef"/><rect y="12" width="20" height="2" fill="#efefef"/><rect y="16" width="20" height="2" fill="#efefef"/></g><rect x="487.265625" y="97.453125" width="21.65625" height="21.65625" fill="#f5f5f5"/><polygon points="498.09999999999997,97.45 498.09999999999997,108.28 487.27,108.28" fill="#e0e0e0"/><circle cx="492.685" cy="113.69500000000001" r="5.415" fill="#e3e3e3"/><rect x="530.578125" y="97.453125" width="21.65625" height="21.65625" fill="#f5f5f5"/><rect x="573.890625" y="97.453125" width="21.65625" height="21.65625" fill="#f5f5f5"/><g transform="translate(573.89,97.45) scale(0.5415) rotate(0)"><path fill-rule="evenodd" clip-rule="evenodd" d="M10 20C15.5228 20 20 15.5228 20 10C20 4.47715 15.5228 0 10 0C4.47715 0 0 4.47715 0 10C0 15.5228 4.47715 20 10 20ZM10 17C13.866 17 17 13.866 17 10C17 6.13401 13.866 3 10 3C6.13401 3 3 6.13401 3 10C3 13.866 6.13401 17 10 17Z" fill="#f4f4f4"/></g><circle cx="590.135" cy="102.86500000000001" r="5.415" fill="#e6e6e6"/><circle cx="590.135" cy="113.69500000000001" r="5.415" fill="#ededed"/><rect x="617.203125" y="97.453125" width="21.65625" height="21.65625" fill="#f5f5f5"/><polygon points="617.2,108.28 628.0300000000001,108.28 628.0300000000001,119.11" fill="#dadada"/><rect x="963.703125" y="97.453125" width="21.65625" height="21.65625" fill="#f5f5f5"/><polygon points="963.7,97.45 974.5300000000001,108.28 963.7,108.28" fill="#dbdbdb"/><circle cx="969.115" cy="113.69500000000001" r="5.415" fill="#efefef"/><polygon points="985.36,108.28 985.36,119.11 974.53,119.11" fill="#e8e8e8"/><rect x="1007.015625" y="97.453125" width="21.65625" height="21.65625" fill="#f5f5f5"/><g transform="translate(1017.84,108.28) scale(0.5415) rotate(0)"><rect width="20" height="2" fill="#dedede"/><rect y="4" width="20" height="2" fill="#dedede"/><rect y="8" width="20" height="2" fill="#dedede"/><rect y="12" width="20" height="2" fill="#dedede"/><rect y="16" width="20" height="2" fill="#dedede"/></g><rect x="1353.515625" y="97.453125" width="21.65625" height="21.65625" fill="#f5f5f5"/><g transform="translate(1353.52,108.28) scale(0.5415) rotate(0)"><rect width="2" height="20" fill="#e7e7e7"/><rect x="4" width="2" height="20" fill="#e7e7e7"/><rect x="8" width="2" height="20" fill="#e7e7e7"/><rect x="12" width="2" height="20" fill="#e7e7e7"/><rect x="16" width="2" height="20" fill="#e7e7e7"/></g><rect x="1396.828125" y="97.453125" width="21.65625" height="21.65625" fill="#f5f5f5"/><g transform="translate(1407.66,97.45) scale(0.5415) rotate(0)"><rect width="20" height="2" fill="#eaeaea"/><rect y="4" width="20" height="2" fill="#eaeaea"/><rect y="8" width="20" height="2" fill="#eaeaea"/><rect y="12" width="20" height="2" fill="#eaeaea"/><rect y="16" width="20" height="2" fill="#eaeaea"/></g><rect x="10.828125" y="140.765625" width="21.65625" height="21.65625" fill="#f5f5f5"/><polygon points="21.66,140.77 32.49,151.60000000000002 21.66,151.60000000000002" fill="#f1f1f1"/><rect x="10.83" y="151.59" width="10.83" height="10.83" fill="#eaeaea"/><polygon points="21.66,151.59 32.49,162.42000000000002 21.66,162.42000000000002" fill="#eeeeee"/><rect x="184.078125" y="140.765625" width="21.65625" height="21.65625" fill="#f5f5f5"/><rect x="194.91" y="140.77" width="10.83" height="10.83" fill="#eeeeee"/><rect x="194.91" y="151.59" width="10.83" height="10.83" fill="#dcdcdc"/><rect x="314.015625" y="140.765625" width="21.65625" height="21.65625" fill="#f5f5f5"/><circle cx="319.435" cy="146.185" r="5.415" fill="#dedede"/><circle cx="319.435" cy="157.005" r="5.415" fill="#dbdbdb"/><rect x="357.328125" y="140.765625" width="21.65625" height="21.65625" fill="#f5f5f5"/><circle cx="362.745" cy="146.185" r="5.415" fill="#dddddd"/><rect x="443.953125" y="140.765625" width="21.65625" height="21.65625" fill="#f5f5f5"/><g transform="translate(443.95,140.77) scale(0.5415) rotate(0)"><rect width="2" height="20" fill="#e2e2e2"/><rect x="4" width="2" height="20" fill="#e2e2e2"/><rect x="8" width="2" height="20" fill="#e2e2e2"/><rect x="12" width="2" height="20" fill="#e2e2e2"/><rect x="16" width="2" height="20" fill="#e2e2e2"/></g><g transform="translate(443.95,151.59) scale(0.5415) rotate(0)"><path fill-rule="evenodd" clip-rule="evenodd" d="M10 20C15.5228 20 20 15.5228 20 10C20 4.47715 15.5228 0 10 0C4.47715 0 0 4.47715 0 10C0 15.5228 4.47715 20 10 20ZM10 17C13.866 17 17 13.866 17 10C17 6.13401 13.866 3 10 3C6.13401 3 3 6.13401 3 10C3 13.866 6.13401 17 10 17Z" fill="#dedede"/></g><rect x="747.140625" y="140.765625" width="21.65625" height="21.65625" fill="#f5f5f5"/><g transform="translate(747.14,140.77) scale(0.5415) rotate(0)"><rect width="2" height="20" fill="#e5e5e5"/><rect x="4" width="2" height="20" fill="#e5e5e5"/><rect x="8" width="2" height="20" fill="#e5e5e5"/><rect x="12" width="2" height="20" fill="#e5e5e5"/><rect x="16" width="2" height="20" fill="#e5e5e5"/></g><rect x="757.97" y="140.77" width="10.83" height="10.83" fill="#e4e4e4"/><polygon points="747.14,151.59 757.97,162.42000000000002 747.14,162.42000000000002" fill="#dddddd"/><rect x="920.390625" y="140.765625" width="21.65625" height="21.65625" fill="#f5f5f5"/><g transform="translate(931.22,140.77) scale(0.5415) rotate(0)"><rect width="20" height="2" fill="#dbdbdb"/><rect y="4" width="20" height="2" fill="#dbdbdb"/><rect y="8" width="20" height="2" fill="#dbdbdb"/><rect y="12" width="20" height="2" fill="#dbdbdb"/><rect y="16" width="20" height="2" fill="#dbdbdb"/></g><g transform="translate(931.22,151.59) scale(0.5415) rotate(0)"><rect width="2" height="20" fill="#e9e9e9"/><rect x="4" width="2" height="20" fill="#e9e9e9"/><rect x="8" width="2" height="20" fill="#e9e9e9"/><rect x="12" width="2" height="20" fill="#e9e9e9"/><rect x="16" width="2" height="20" fill="#e9e9e9"/></g><rect x="1180.265625" y="140.765625" width="21.65625" height="21.65625" fill="#f5f5f5"/><circle cx="1185.685" cy="146.185" r="5.415" fill="#f2f2f2"/><rect x="1223.578125" y="140.765625" width="21.65625" height="21.65625" fill="#f5f5f5"/><g transform="translate(1234.41,151.59) scale(0.5415) rotate(0)"><rect width="2" height="20" fill="#ededed"/><rect x="4" width="2" height="20" fill="#ededed"/><rect x="8" width="2" height="20" fill="#ededed"/><rect x="12" width="2" height="20" fill="#ededed"/><rect x="16" width="2" height="20" fill="#ededed"/></g><rect x="1310.203125" y="140.765625" width="21.65625" height="21.65625" fill="#f5f5f5"/><rect x="1321.03" y="140.77" width="10.83" height="10.83" fill="#dddddd"/><circle cx="1326.445" cy="157.005" r="5.415" fill="#e4e4e4"/><rect x="1353.515625" y="140.765625" width="21.65625" height="21.65625" fill="#f5f5f5"/><g transform="translate(1353.52,140.77) scale(0.5415) rotate(0)"><path fill-rule="evenodd" clip-rule="evenodd" d="M10 20C15.5228 20 20 15.5228 20 10C20 4.47715 15.5228 0 10 0C4.47715 0 0 4.47715 0 10C0 15.5228 4.47715 20 10 20ZM10 17C13.866 17 17 13.866 17 10C17 6.13401 13.866 3 10 3C6.13401 3 3 6.13401 3 10C3 13.866 6.13401 17 10 17Z" fill="#eeeeee"/></g><g transform="translate(1353.52,151.59) scale(0.5415) rotate(0)"><path fill-rule="evenodd" clip-rule="evenodd" d="M10 20C15.5228 20 20 15.5228 20 10C20 4.47715 15.5228 0 10 0C4.47715 0 0 4.47715 0 10C0 15.5228 4.47715 20 10 20ZM10 17C13.866 17 17 13.866 17 10C17 6.13401 13.866 3 10 3C6.13401 3 3 6.13401 3 10C3 13.866 6.13401 17 10 17Z" fill="#f3f3f3"/></g><circle cx="1369.7549999999999" cy="157.005" r="5.415" fill="#e5e5e5"/><rect x="10.828125" y="184.078125" width="21.65625" height="21.65625" fill="#f5f5f5"/><g transform="translate(21.66,184.08) scale(0.5415) rotate(0)"><rect width="20" height="2" fill="#e0e0e0"/><rect y="4" width="20" height="2" fill="#e0e0e0"/><rect y="8" width="20" height="2" fill="#e0e0e0"/><rect y="12" width="20" height="2" fill="#e0e0e0"/><rect y="16" width="20" height="2" fill="#e0e0e0"/></g><rect x="54.140625" y="184.078125" width="21.65625" height="21.65625" fill="#f5f5f5"/><rect x="64.97" y="184.08" width="10.83" height="10.83" fill="#f0f0f0"/><rect x="184.078125" y="184.078125" width="21.65625" height="21.65625" fill="#f5f5f5"/><circle cx="189.495" cy="189.495" r="5.415" fill="#f4f4f4"/><rect x="227.390625" y="184.078125" width="21.65625" height="21.65625" fill="#f5f5f5"/><rect x="357.328125" y="184.078125" width="21.65625" height="21.65625" fill="#f5f5f5"/><polygon points="378.99,184.08 378.99,194.91000000000003 368.16,194.91000000000003" fill="#dbdbdb"/><rect x="443.953125" y="184.078125" width="21.65625" height="21.65625" fill="#f5f5f5"/><rect x="747.140625" y="184.078125" width="21.65625" height="21.65625" fill="#f5f5f5"/><g transform="translate(747.14,194.91) scale(0.5415) rotate(0)"><rect width="20" height="2" fill="#f1f1f1"/><rect y="4" width="20" height="2" fill="#f1f1f1"/><rect y="8" width="20" height="2" fill="#f1f1f1"/><rect y="12" width="20" height="2" fill="#f1f1f1"/><rect y="16" width="20" height="2" fill="#f1f1f1"/></g><rect x="1180.265625" y="184.078125" width="21.65625" height="21.65625" fill="#f5f5f5"/><g transform="translate(1191.09,194.91) scale(0.5415) rotate(0)"><path fill-rule="evenodd" clip-rule="evenodd" d="M10 20C15.5228 20 20 15.5228 20 10C20 4.47715 15.5228 0 10 0C4.47715 0 0 4.47715 0 10C0 15.5228 4.47715 20 10 20ZM10 17C13.866 17 17 13.866 17 10C17 6.13401 13.866 3 10 3C6.13401 3 3 6.13401 3 10C3 13.866 6.13401 17 10 17Z" fill="#ebebeb"/></g><rect x="1223.578125" y="184.078125" width="21.65625" height="21.65625" fill="#f5f5f5"/><circle cx="1228.995" cy="189.495" r="5.415" fill="#e4e4e4"/><rect x="1310.203125" y="184.078125" width="21.65625" height="21.65625" fill="#f5f5f5"/><rect x="1321.03" y="184.08" width="10.83" height="10.83" fill="#dcdcdc"/><polygon points="1321.03,194.91 1331.86,205.74 1321.03,205.74" fill="#f0f0f0"/><rect x="1396.828125" y="184.078125" width="21.65625" height="21.65625" fill="#f5f5f5"/><polygon points="1396.83,184.08 1407.6599999999999,184.08 1407.6599999999999,194.91000000000003" fill="#ededed"/><polygon points="1396.83,194.91 1407.6599999999999,205.74 1396.83,205.74" fill="#f1f1f1"/><rect x="10.828125" y="227.390625" width="21.65625" height="21.65625" fill="#f5f5f5"/><g transform="translate(21.66,227.39) scale(0.5415) rotate(0)"><path fill-rule="evenodd" clip-rule="evenodd" d="M10 20C15.5228 20 20 15.5228 20 10C20 4.47715 15.5228 0 10 0C4.47715 0 0 4.47715 0 10C0 15.5228 4.47715 20 10 20ZM10 17C13.866 17 17 13.866 17 10C17 6.13401 13.866 3 10 3C6.13401 3 3 6.13401 3 10C3 13.866 6.13401 17 10 17Z" fill="#dadada"/></g><rect x="54.140625" y="227.390625" width="21.65625" height="21.65625" fill="#f5f5f5"/><rect x="184.078125" y="227.390625" width="21.65625" height="21.65625" fill="#f5f5f5"/><rect x="227.390625" y="227.390625" width="21.65625" height="21.65625" fill="#f5f5f5"/><polygon points="238.22,227.39 249.05,238.22 238.22,238.22" fill="#f5f5f5"/><rect x="314.015625" y="227.390625" width="21.65625" height="21.65625" fill="#f5f5f5"/><g transform="translate(314.02,227.39) scale(0.5415) rotate(0)"><rect width="20" height="2" fill="#f4f4f4"/><rect y="4" width="20" height="2" fill="#f4f4f4"/><rect y="8" width="20" height="2" fill="#f4f4f4"/><rect y="12" width="20" height="2" fill="#f4f4f4"/><rect y="16" width="20" height="2" fill="#f4f4f4"/></g><rect x="357.328125" y="227.390625" width="21.65625" height="21.65625" fill="#f5f5f5"/><g transform="translate(357.33,227.39) scale(0.5415) rotate(0)"><path fill-rule="evenodd" clip-rule="evenodd" d="M10 20C15.5228 20 20 15.5228 20 10C20 4.47715 15.5228 0 10 0C4.47715 0 0 4.47715 0 10C0 15.5228 4.47715 20 10 20ZM10 17C13.866 17 17 13.866 17 10C17 6.13401 13.866 3 10 3C6.13401 3 3 6.13401 3 10C3 13.866 6.13401 17 10 17Z" fill="#ebebeb"/></g><rect x="368.16" y="227.39" width="10.83" height="10.83" fill="#e7e7e7"/><circle cx="362.745" cy="243.635" r="5.415" fill="#e6e6e6"/><rect x="487.265625" y="227.390625" width="21.65625" height="21.65625" fill="#f5f5f5"/><circle cx="503.505" cy="232.80499999999998" r="5.415" fill="#e6e6e6"/><rect x="1093.640625" y="227.390625" width="21.65625" height="21.65625" fill="#f5f5f5"/><circle cx="1109.885" cy="232.80499999999998" r="5.415" fill="#dbdbdb"/><rect x="1136.953125" y="227.390625" width="21.65625" height="21.65625" fill="#f5f5f5"/><rect x="1147.78" y="227.39" width="10.83" height="10.83" fill="#ededed"/><rect x="1147.78" y="238.22" width="10.83" height="10.83" fill="#ececec"/><rect x="1310.203125" y="227.390625" width="21.65625" height="21.65625" fill="#f5f5f5"/><g transform="translate(1321.03,238.22) scale(0.5415) rotate(0)"><rect width="2" height="20" fill="#f5f5f5"/><rect x="4" width="2" height="20" fill="#f5f5f5"/><rect x="8" width="2" height="20" fill="#f5f5f5"/><rect x="12" width="2" height="20" fill="#f5f5f5"/><rect x="16" width="2" height="20" fill="#f5f5f5"/></g><rect x="10.828125" y="270.703125" width="21.65625" height="21.65625" fill="#f5f5f5"/><g transform="translate(21.66,270.7) scale(0.5415) rotate(0)"><rect width="20" height="2" fill="#f5f5f5"/><rect y="4" width="20" height="2" fill="#f5f5f5"/><rect y="8" width="20" height="2" fill="#f5f5f5"/><rect y="12" width="20" height="2" fill="#f5f5f5"/><rect y="16" width="20" height="2" fill="#f5f5f5"/></g><polygon points="21.66,281.53 32.49,281.53 21.66,292.35999999999996" fill="#dcdcdc"/><rect x="54.140625" y="270.703125" width="21.65625" height="21.65625" fill="#f5f5f5"/><rect x="97.453125" y="270.703125" width="21.65625" height="21.65625" fill="#f5f5f5"/><polygon points="97.45,270.7 108.28,270.7 97.45,281.53" fill="#f1f1f1"/><circle cx="102.86500000000001" cy="286.945" r="5.415" fill="#f1f1f1"/><rect x="140.765625" y="270.703125" width="21.65625" height="21.65625" fill="#f5f5f5"/><g transform="translate(140.77,270.7) scale(0.5415) rotate(0)"><rect width="20" height="2" fill="#e0e0e0"/><rect y="4" width="20" height="2" fill="#e0e0e0"/><rect y="8" width="20" height="2" fill="#e0e0e0"/><rect y="12" width="20" height="2" fill="#e0e0e0"/><rect y="16" width="20" height="2" fill="#e0e0e0"/></g><g transform="translate(151.59,270.7) scale(0.5415) rotate(0)"><rect width="2" height="20" fill="#f2f2f2"/><rect x="4" width="2" height="20" fill="#f2f2f2"/><rect x="8" width="2" height="20" fill="#f2f2f2"/><rect x="12" width="2" height="20" fill="#f2f2f2"/><rect x="16" width="2" height="20" fill="#f2f2f2"/></g><rect x="357.328125" y="270.703125" width="21.65625" height="21.65625" fill="#f5f5f5"/><rect x="357.33" y="281.53" width="10.83" height="10.83" fill="#e8e8e8"/><rect x="660.515625" y="270.703125" width="21.65625" height="21.65625" fill="#f5f5f5"/><g transform="translate(660.52,270.7) scale(0.5415) rotate(0)"><rect width="2" height="20" fill="#dfdfdf"/><rect x="4" width="2" height="20" fill="#dfdfdf"/><rect x="8" width="2" height="20" fill="#dfdfdf"/><rect x="12" width="2" height="20" fill="#dfdfdf"/><rect x="16" width="2" height="20" fill="#dfdfdf"/></g><rect x="671.34" y="281.53" width="10.83" height="10.83" fill="#eeeeee"/><rect x="833.765625" y="270.703125" width="21.65625" height="21.65625" fill="#f5f5f5"/><rect x="1266.890625" y="270.703125" width="21.65625" height="21.65625" fill="#f5f5f5"/><rect x="1310.203125" y="270.703125" width="21.65625" height="21.65625" fill="#f5f5f5"/><g transform="translate(1310.2,270.7) scale(0.5415) rotate(0)"><path fill-rule="evenodd" clip-rule="evenodd" d="M10 20C15.5228 20 20 15.5228 20 10C20 4.47715 15.5228 0 10 0C4.47715 0 0 4.47715 0 10C0 15.5228 4.47715 20 10 20ZM10 17C13.866 17 17 13.866 17 10C17 6.13401 13.866 3 10 3C6.13401 3 3 6.13401 3 10C3 13.866 6.13401 17 10 17Z" fill="#e2e2e2"/></g><rect x="54.140625" y="314.015625" width="21.65625" height="21.65625" fill="#f5f5f5"/><rect x="140.765625" y="314.015625" width="21.65625" height="21.65625" fill="#f5f5f5"/><g transform="translate(140.77,314.02) scale(0.5415) rotate(0)"><rect width="20" height="2" fill="#e5e5e5"/><rect y="4" width="20" height="2" fill="#e5e5e5"/><rect y="8" width="20" height="2" fill="#e5e5e5"/><rect y="12" width="20" height="2" fill="#e5e5e5"/><rect y="16" width="20" height="2" fill="#e5e5e5"/></g><g transform="translate(151.59,314.02) scale(0.5415) rotate(0)"><rect width="20" height="2" fill="#ededed"/><rect y="4" width="20" height="2" fill="#ededed"/><rect y="8" width="20" height="2" fill="#ededed"/><rect y="12" width="20" height="2" fill="#ededed"/><rect y="16" width="20" height="2" fill="#ededed"/></g><g transform="translate(140.77,324.84) scale(0.5415) rotate(0)"><path fill-rule="evenodd" clip-rule="evenodd" d="M10 20C15.5228 20 20 15.5228 20 10C20 4.47715 15.5228 0 10 0C4.47715 0 0 4.47715 0 10C0 15.5228 4.47715 20 10 20ZM10 17C13.866 17 17 13.866 17 10C17 6.13401 13.866 3 10 3C6.13401 3 3 6.13401 3 10C3 13.866 6.13401 17 10 17Z" fill="#e5e5e5"/></g><rect x="184.078125" y="314.015625" width="21.65625" height="21.65625" fill="#f5f5f5"/><g transform="translate(194.91,324.84) scale(0.5415) rotate(0)"><rect width="20" height="2" fill="#f5f5f5"/><rect y="4" width="20" height="2" fill="#f5f5f5"/><rect y="8" width="20" height="2" fill="#f5f5f5"/><rect y="12" width="20" height="2" fill="#f5f5f5"/><rect y="16" width="20" height="2" fill="#f5f5f5"/></g><rect x="270.703125" y="314.015625" width="21.65625" height="21.65625" fill="#f5f5f5"/><circle cx="286.945" cy="330.255" r="5.415" fill="#eeeeee"/><rect x="314.015625" y="314.015625" width="21.65625" height="21.65625" fill="#f5f5f5"/><circle cx="330.255" cy="319.435" r="5.415" fill="#f1f1f1"/><rect x="314.02" y="324.84" width="10.83" height="10.83" fill="#d9d9d9"/><rect x="530.578125" y="314.015625" width="21.65625" height="21.65625" fill="#f5f5f5"/><g transform="translate(530.58,314.02) scale(0.5415) rotate(0)"><rect width="2" height="20" fill="#dedede"/><rect x="4" width="2" height="20" fill="#dedede"/><rect x="8" width="2" height="20" fill="#dedede"/><rect x="12" width="2" height="20" fill="#dedede"/><rect x="16" width="2" height="20" fill="#dedede"/></g><rect x="573.890625" y="314.015625" width="21.65625" height="21.65625" fill="#f5f5f5"/><circle cx="590.135" cy="319.435" r="5.415" fill="#f1f1f1"/><rect x="617.203125" y="314.015625" width="21.65625" height="21.65625" fill="#f5f5f5"/><rect x="628.03" y="314.02" width="10.83" height="10.83" fill="#f5f5f5"/><rect x="790.453125" y="314.015625" width="21.65625" height="21.65625" fill="#f5f5f5"/><g transform="translate(790.45,324.84) scale(0.5415) rotate(0)"><rect width="2" height="20" fill="#e3e3e3"/><rect x="4" width="2" height="20" fill="#e3e3e3"/><rect x="8" width="2" height="20" fill="#e3e3e3"/><rect x="12" width="2" height="20" fill="#e3e3e3"/><rect x="16" width="2" height="20" fill="#e3e3e3"/></g><rect x="920.390625" y="314.015625" width="21.65625" height="21.65625" fill="#f5f5f5"/><g transform="translate(931.22,324.84) scale(0.5415) rotate(0)"><rect width="20" height="2" fill="#ececec"/><rect y="4" width="20" height="2" fill="#ececec"/><rect y="8" width="20" height="2" fill="#ececec"/><rect y="12" width="20" height="2" fill="#ececec"/><rect y="16" width="20" height="2" fill="#ececec"/></g><rect x="1136.953125" y="314.015625" width="21.65625" height="21.65625" fill="#f5f5f5"/><circle cx="1142.365" cy="319.435" r="5.415" fill="#e8e8e8"/><polygon points="1147.78,324.84 1158.61,324.84 1158.61,335.66999999999996" fill="#dadada"/><rect x="1353.515625" y="314.015625" width="21.65625" height="21.65625" fill="#f5f5f5"/><g transform="translate(1364.34,324.84) scale(0.5415) rotate(0)"><rect width="20" height="2" fill="#e1e1e1"/><rect y="4" width="20" height="2" fill="#e1e1e1"/><rect y="8" width="20" height="2" fill="#e1e1e1"/><rect y="12" width="20" height="2" fill="#e1e1e1"/><rect y="16" width="20" height="2" fill="#e1e1e1"/></g><rect x="140.765625" y="357.328125" width="21.65625" height="21.65625" fill="#f5f5f5"/><rect x="184.078125" y="357.328125" width="21.65625" height="21.65625" fill="#f5f5f5"/><circle cx="200.325" cy="373.57500000000005" r="5.415" fill="#dcdcdc"/><rect x="443.953125" y="357.328125" width="21.65625" height="21.65625" fill="#f5f5f5"/><g transform="translate(454.78,368.16) scale(0.5415) rotate(0)"><rect width="2" height="20" fill="#f3f3f3"/><rect x="4" width="2" height="20" fill="#f3f3f3"/><rect x="8" width="2" height="20" fill="#f3f3f3"/><rect x="12" width="2" height="20" fill="#f3f3f3"/><rect x="16" width="2" height="20" fill="#f3f3f3"/></g><rect x="617.203125" y="357.328125" width="21.65625" height="21.65625" fill="#f5f5f5"/><g transform="translate(617.2,357.33) scale(0.5415) rotate(0)"><path fill-rule="evenodd" clip-rule="evenodd" d="M10 20C15.5228 20 20 15.5228 20 10C20 4.47715 15.5228 0 10 0C4.47715 0 0 4.47715 0 10C0 15.5228 4.47715 20 10 20ZM10 17C13.866 17 17 13.866 17 10C17 6.13401 13.866 3 10 3C6.13401 3 3 6.13401 3 10C3 13.866 6.13401 17 10 17Z" fill="#ebebeb"/></g><rect x="833.765625" y="357.328125" width="21.65625" height="21.65625" fill="#f5f5f5"/><circle cx="839.185" cy="362.745" r="5.415" fill="#ededed"/><g transform="translate(844.59,368.16) scale(0.5415) rotate(0)"><rect width="20" height="2" fill="#e4e4e4"/><rect y="4" width="20" height="2" fill="#e4e4e4"/><rect y="8" width="20" height="2" fill="#e4e4e4"/><rect y="12" width="20" height="2" fill="#e4e4e4"/><rect y="16" width="20" height="2" fill="#e4e4e4"/></g><rect x="963.703125" y="357.328125" width="21.65625" height="21.65625" fill="#f5f5f5"/><rect x="1180.265625" y="357.328125" width="21.65625" height="21.65625" fill="#f5f5f5"/><g transform="translate(1180.27,357.33) scale(0.5415) rotate(0)"><path fill-rule="evenodd" clip-rule="evenodd" d="M10 20C15.5228 20 20 15.5228 20 10C20 4.47715 15.5228 0 10 0C4.47715 0 0 4.47715 0 10C0 15.5228 4.47715 20 10 20ZM10 17C13.866 17 17 13.866 17 10C17 6.13401 13.866 3 10 3C6.13401 3 3 6.13401 3 10C3 13.866 6.13401 17 10 17Z" fill="#f1f1f1"/></g><rect x="1180.27" y="368.16" width="10.83" height="10.83" fill="#dcdcdc"/><g transform="translate(1191.09,368.16) scale(0.5415) rotate(0)"><path fill-rule="evenodd" clip-rule="evenodd" d="M10 20C15.5228 20 20 15.5228 20 10C20 4.47715 15.5228 0 10 0C4.47715 0 0 4.47715 0 10C0 15.5228 4.47715 20 10 20ZM10 17C13.866 17 17 13.866 17 10C17 6.13401 13.866 3 10 3C6.13401 3 3 6.13401 3 10C3 13.866 6.13401 17 10 17Z" fill="#dfdfdf"/></g><rect x="1310.203125" y="357.328125" width="21.65625" height="21.65625" fill="#f5f5f5"/><polygon points="1310.2,368.16 1321.03,378.99 1310.2,378.99" fill="#ededed"/><g transform="translate(1321.03,368.16) scale(0.5415) rotate(0)"><rect width="20" height="2" fill="#e5e5e5"/><rect y="4" width="20" height="2" fill="#e5e5e5"/><rect y="8" width="20" height="2" fill="#e5e5e5"/><rect y="12" width="20" height="2" fill="#e5e5e5"/><rect y="16" width="20" height="2" fill="#e5e5e5"/></g><rect x="1353.515625" y="357.328125" width="21.65625" height="21.65625" fill="#f5f5f5"/><g transform="translate(1353.52,357.33) scale(0.5415) rotate(0)"><rect width="20" height="2" fill="#e7e7e7"/><rect y="4" width="20" height="2" fill="#e7e7e7"/><rect y="8" width="20" height="2" fill="#e7e7e7"/><rect y="12" width="20" height="2" fill="#e7e7e7"/><rect y="16" width="20" height="2" fill="#e7e7e7"/></g><circle cx="1358.935" cy="373.57500000000005" r="5.415" fill="#e3e3e3"/><rect x="1396.828125" y="357.328125" width="21.65625" height="21.65625" fill="#f5f5f5"/><polygon points="1396.83,368.16 1407.6599999999999,368.16 1396.83,378.99" fill="#e0e0e0"/><polygon points="1407.66,368.16 1418.49,368.16 1407.66,378.99" fill="#dddddd"/><rect x="10.828125" y="400.640625" width="21.65625" height="21.65625" fill="#f5f5f5"/><polygon points="21.66,411.47 32.49,411.47 32.49,422.3" fill="#e1e1e1"/><rect x="227.390625" y="400.640625" width="21.65625" height="21.65625" fill="#f5f5f5"/><rect x="314.015625" y="400.640625" width="21.65625" height="21.65625" fill="#f5f5f5"/><rect x="443.953125" y="400.640625" width="21.65625" height="21.65625" fill="#f5f5f5"/><rect x="454.78" y="411.47" width="10.83" height="10.83" fill="#ebebeb"/><rect x="617.203125" y="400.640625" width="21.65625" height="21.65625" fill="#f5f5f5"/><polygon points="617.2,400.64 628.0300000000001,411.46999999999997 617.2,411.46999999999997" fill="#f3f3f3"/><circle cx="622.615" cy="416.88500000000005" r="5.415" fill="#dddddd"/><g transform="translate(628.03,411.47) scale(0.5415) rotate(0)"><rect width="2" height="20" fill="#dddddd"/><rect x="4" width="2" height="20" fill="#dddddd"/><rect x="8" width="2" height="20" fill="#dddddd"/><rect x="12" width="2" height="20" fill="#dddddd"/><rect x="16" width="2" height="20" fill="#dddddd"/></g><rect x="1050.328125" y="400.640625" width="21.65625" height="21.65625" fill="#f5f5f5"/><polygon points="1050.33,411.47 1061.1599999999999,411.47 1061.1599999999999,422.3" fill="#f2f2f2"/><polygon points="1061.16,411.47 1071.99,411.47 1061.16,422.3" fill="#d9d9d9"/><rect x="1093.640625" y="400.640625" width="21.65625" height="21.65625" fill="#f5f5f5"/><g transform="translate(1093.64,411.47) scale(0.5415) rotate(0)"><rect width="20" height="2" fill="#dcdcdc"/><rect y="4" width="20" height="2" fill="#dcdcdc"/><rect y="8" width="20" height="2" fill="#dcdcdc"/><rect y="12" width="20" height="2" fill="#dcdcdc"/><rect y="16" width="20" height="2" fill="#dcdcdc"/></g><rect x="1266.890625" y="400.640625" width="21.65625" height="21.65625" fill="#f5f5f5"/><rect x="1310.203125" y="400.640625" width="21.65625" height="21.65625" fill="#f5f5f5"/><rect x="1321.03" y="400.64" width="10.83" height="10.83" fill="#dadada"/><circle cx="1315.615" cy="416.88500000000005" r="5.415" fill="#e7e7e7"/><rect x="1353.515625" y="400.640625" width="21.65625" height="21.65625" fill="#f5f5f5"/><g transform="translate(1353.52,411.47) scale(0.5415) rotate(0)"><rect width="20" height="2" fill="#e4e4e4"/><rect y="4" width="20" height="2" fill="#e4e4e4"/><rect y="8" width="20" height="2" fill="#e4e4e4"/><rect y="12" width="20" height="2" fill="#e4e4e4"/><rect y="16" width="20" height="2" fill="#e4e4e4"/></g><rect x="1396.828125" y="400.640625" width="21.65625" height="21.65625" fill="#f5f5f5"/><rect x="1396.83" y="411.47" width="10.83" height="10.83" fill="#e5e5e5"/><rect x="97.453125" y="443.953125" width="21.65625" height="21.65625" fill="#f5f5f5"/><g transform="translate(97.45,443.95) scale(0.5415) rotate(0)"><rect width="20" height="2" fill="#e0e0e0"/><rect y="4" width="20" height="2" fill="#e0e0e0"/><rect y="8" width="20" height="2" fill="#e0e0e0"/><rect y="12" width="20" height="2" fill="#e0e0e0"/><rect y="16" width="20" height="2" fill="#e0e0e0"/></g><g transform="translate(108.28,454.78) scale(0.5415) rotate(0)"><path fill-rule="evenodd" clip-rule="evenodd" d="M10 20C15.5228 20 20 15.5228 20 10C20 4.47715 15.5228 0 10 0C4.47715 0 0 4.47715 0 10C0 15.5228 4.47715 20 10 20ZM10 17C13.866 17 17 13.866 17 10C17 6.13401 13.866 3 10 3C6.13401 3 3 6.13401 3 10C3 13.866 6.13401 17 10 17Z" fill="#e5e5e5"/></g><rect x="227.390625" y="443.953125" width="21.65625" height="21.65625" fill="#f5f5f5"/><circle cx="232.80499999999998" cy="449.365" r="5.415" fill="#f1f1f1"/><g transform="translate(227.39,454.78) scale(0.5415) rotate(0)"><path fill-rule="evenodd" clip-rule="evenodd" d="M10 20C15.5228 20 20 15.5228 20 10C20 4.47715 15.5228 0 10 0C4.47715 0 0 4.47715 0 10C0 15.5228 4.47715 20 10 20ZM10 17C13.866 17 17 13.866 17 10C17 6.13401 13.866 3 10 3C6.13401 3 3 6.13401 3 10C3 13.866 6.13401 17 10 17Z" fill="#ededed"/></g><rect x="400.640625" y="443.953125" width="21.65625" height="21.65625" fill="#f5f5f5"/><rect x="573.890625" y="443.953125" width="21.65625" height="21.65625" fill="#f5f5f5"/><rect x="703.828125" y="443.953125" width="21.65625" height="21.65625" fill="#f5f5f5"/><rect x="703.83" y="454.78" width="10.83" height="10.83" fill="#e4e4e4"/><rect x="877.078125" y="443.953125" width="21.65625" height="21.65625" fill="#f5f5f5"/><polygon points="877.08,443.95 887.9100000000001,443.95 877.08,454.78" fill="#e1e1e1"/><g transform="translate(887.91,443.95) scale(0.5415) rotate(0)"><path fill-rule="evenodd" clip-rule="evenodd" d="M10 20C15.5228 20 20 15.5228 20 10C20 4.47715 15.5228 0 10 0C4.47715 0 0 4.47715 0 10C0 15.5228 4.47715 20 10 20ZM10 17C13.866 17 17 13.866 17 10C17 6.13401 13.866 3 10 3C6.13401 3 3 6.13401 3 10C3 13.866 6.13401 17 10 17Z" fill="#f0f0f0"/></g><rect x="963.703125" y="443.953125" width="21.65625" height="21.65625" fill="#f5f5f5"/><g transform="translate(963.7,443.95) scale(0.5415) rotate(0)"><rect width="20" height="2" fill="#e5e5e5"/><rect y="4" width="20" height="2" fill="#e5e5e5"/><rect y="8" width="20" height="2" fill="#e5e5e5"/><rect y="12" width="20" height="2" fill="#e5e5e5"/><rect y="16" width="20" height="2" fill="#e5e5e5"/></g><g transform="translate(974.53,443.95) scale(0.5415) rotate(0)"><rect width="2" height="20" fill="#e3e3e3"/><rect x="4" width="2" height="20" fill="#e3e3e3"/><rect x="8" width="2" height="20" fill="#e3e3e3"/><rect x="12" width="2" height="20" fill="#e3e3e3"/><rect x="16" width="2" height="20" fill="#e3e3e3"/></g><polygon points="974.5300000000001,454.78 974.5300000000001,465.60999999999996 963.7,465.60999999999996" fill="#dadada"/><g transform="translate(974.53,454.78) scale(0.5415) rotate(0)"><rect width="2" height="20" fill="#e2e2e2"/><rect x="4" width="2" height="20" fill="#e2e2e2"/><rect x="8" width="2" height="20" fill="#e2e2e2"/><rect x="12" width="2" height="20" fill="#e2e2e2"/><rect x="16" width="2" height="20" fill="#e2e2e2"/></g><rect x="1007.015625" y="443.953125" width="21.65625" height="21.65625" fill="#f5f5f5"/><circle cx="1012.435" cy="449.365" r="5.415" fill="#d9d9d9"/><circle cx="1012.435" cy="460.195" r="5.415" fill="#dddddd"/><rect x="1136.953125" y="443.953125" width="21.65625" height="21.65625" fill="#f5f5f5"/><g transform="translate(1136.95,443.95) scale(0.5415) rotate(0)"><rect width="20" height="2" fill="#ededed"/><rect y="4" width="20" height="2" fill="#ededed"/><rect y="8" width="20" height="2" fill="#ededed"/><rect y="12" width="20" height="2" fill="#ededed"/><rect y="16" width="20" height="2" fill="#ededed"/></g><rect x="1180.265625" y="443.953125" width="21.65625" height="21.65625" fill="#f5f5f5"/><rect x="1223.578125" y="443.953125" width="21.65625" height="21.65625" fill="#f5f5f5"/><g transform="translate(1223.58,443.95) scale(0.5415) rotate(0)"><rect width="20" height="2" fill="#e2e2e2"/><rect y="4" width="20" height="2" fill="#e2e2e2"/><rect y="8" width="20" height="2" fill="#e2e2e2"/><rect y="12" width="20" height="2" fill="#e2e2e2"/><rect y="16" width="20" height="2" fill="#e2e2e2"/></g><rect x="1223.58" y="454.78" width="10.83" height="10.83" fill="#eeeeee"/><rect x="1266.890625" y="443.953125" width="21.65625" height="21.65625" fill="#f5f5f5"/><rect x="1310.203125" y="443.953125" width="21.65625" height="21.65625" fill="#f5f5f5"/><rect x="1310.2" y="443.95" width="10.83" height="10.83" fill="#f3f3f3"/><g transform="translate(1310.2,454.78) scale(0.5415) rotate(0)"><rect width="20" height="2" fill="#dddddd"/><rect y="4" width="20" height="2" fill="#dddddd"/><rect y="8" width="20" height="2" fill="#dddddd"/><rect y="12" width="20" height="2" fill="#dddddd"/><rect y="16" width="20" height="2" fill="#dddddd"/></g><rect x="54.140625" y="487.265625" width="21.65625" height="21.65625" fill="#f5f5f5"/><rect x="97.453125" y="487.265625" width="21.65625" height="21.65625" fill="#f5f5f5"/><g transform="translate(108.28,487.27) scale(0.5415) rotate(0)"><rect width="20" height="2" fill="#e2e2e2"/><rect y="4" width="20" height="2" fill="#e2e2e2"/><rect y="8" width="20" height="2" fill="#e2e2e2"/><rect y="12" width="20" height="2" fill="#e2e2e2"/><rect y="16" width="20" height="2" fill="#e2e2e2"/></g><circle cx="102.86500000000001" cy="503.505" r="5.415" fill="#dddddd"/><rect x="184.078125" y="487.265625" width="21.65625" height="21.65625" fill="#f5f5f5"/><g transform="translate(184.08,487.27) scale(0.5415) rotate(0)"><rect width="2" height="20" fill="#e9e9e9"/><rect x="4" width="2" height="20" fill="#e9e9e9"/><rect x="8" width="2" height="20" fill="#e9e9e9"/><rect x="12" width="2" height="20" fill="#e9e9e9"/><rect x="16" width="2" height="20" fill="#e9e9e9"/></g><g transform="translate(184.08,498.09) scale(0.5415) rotate(0)"><rect width="2" height="20" fill="#e2e2e2"/><rect x="4" width="2" height="20" fill="#e2e2e2"/><rect x="8" width="2" height="20" fill="#e2e2e2"/><rect x="12" width="2" height="20" fill="#e2e2e2"/><rect x="16" width="2" height="20" fill="#e2e2e2"/></g><rect x="400.640625" y="487.265625" width="21.65625" height="21.65625" fill="#f5f5f5"/><g transform="translate(400.64,487.27) scale(0.5415) rotate(0)"><path fill-rule="evenodd" clip-rule="evenodd" d="M10 20C15.5228 20 20 15.5228 20 10C20 4.47715 15.5228 0 10 0C4.47715 0 0 4.47715 0 10C0 15.5228 4.47715 20 10 20ZM10 17C13.866 17 17 13.866 17 10C17 6.13401 13.866 3 10 3C6.13401 3 3 6.13401 3 10C3 13.866 6.13401 17 10 17Z" fill="#e4e4e4"/></g><g transform="translate(411.47,498.09) scale(0.5415) rotate(0)"><rect width="20" height="2" fill="#f0f0f0"/><rect y="4" width="20" height="2" fill="#f0f0f0"/><rect y="8" width="20" height="2" fill="#f0f0f0"/><rect y="12" width="20" height="2" fill="#f0f0f0"/><rect y="16" width="20" height="2" fill="#f0f0f0"/></g><rect x="703.828125" y="487.265625" width="21.65625" height="21.65625" fill="#f5f5f5"/><rect x="714.66" y="487.27" width="10.83" height="10.83" fill="#e3e3e3"/><rect x="747.140625" y="487.265625" width="21.65625" height="21.65625" fill="#f5f5f5"/><g transform="translate(757.97,487.27) scale(0.5415) rotate(0)"><path fill-rule="evenodd" clip-rule="evenodd" d="M10 20C15.5228 20 20 15.5228 20 10C20 4.47715 15.5228 0 10 0C4.47715 0 0 4.47715 0 10C0 15.5228 4.47715 20 10 20ZM10 17C13.866 17 17 13.866 17 10C17 6.13401 13.866 3 10 3C6.13401 3 3 6.13401 3 10C3 13.866 6.13401 17 10 17Z" fill="#f1f1f1"/></g><rect x="790.453125" y="487.265625" width="21.65625" height="21.65625" fill="#f5f5f5"/><g transform="translate(790.45,487.27) scale(0.5415) rotate(0)"><path fill-rule="evenodd" clip-rule="evenodd" d="M10 20C15.5228 20 20 15.5228 20 10C20 4.47715 15.5228 0 10 0C4.47715 0 0 4.47715 0 10C0 15.5228 4.47715 20 10 20ZM10 17C13.866 17 17 13.866 17 10C17 6.13401 13.866 3 10 3C6.13401 3 3 6.13401 3 10C3 13.866 6.13401 17 10 17Z" fill="#e8e8e8"/></g><rect x="833.765625" y="487.265625" width="21.65625" height="21.65625" fill="#f5f5f5"/><rect x="833.77" y="487.27" width="10.83" height="10.83" fill="#e5e5e5"/><g transform="translate(844.59,487.27) scale(0.5415) rotate(0)"><path fill-rule="evenodd" clip-rule="evenodd" d="M10 20C15.5228 20 20 15.5228 20 10C20 4.47715 15.5228 0 10 0C4.47715 0 0 4.47715 0 10C0 15.5228 4.47715 20 10 20ZM10 17C13.866 17 17 13.866 17 10C17 6.13401 13.866 3 10 3C6.13401 3 3 6.13401 3 10C3 13.866 6.13401 17 10 17Z" fill="#ebebeb"/></g><g transform="translate(833.77,498.09) scale(0.5415) rotate(0)"><path fill-rule="evenodd" clip-rule="evenodd" d="M10 20C15.5228 20 20 15.5228 20 10C20 4.47715 15.5228 0 10 0C4.47715 0 0 4.47715 0 10C0 15.5228 4.47715 20 10 20ZM10 17C13.866 17 17 13.866 17 10C17 6.13401 13.866 3 10 3C6.13401 3 3 6.13401 3 10C3 13.866 6.13401 17 10 17Z" fill="#e9e9e9"/></g><polygon points="844.59,498.09 855.4200000000001,508.91999999999996 844.59,508.91999999999996" fill="#e8e8e8"/><rect x="877.078125" y="487.265625" width="21.65625" height="21.65625" fill="#f5f5f5"/><rect x="887.91" y="498.09" width="10.83" height="10.83" fill="#e4e4e4"/><rect x="963.703125" y="487.265625" width="21.65625" height="21.65625" fill="#f5f5f5"/><circle cx="969.115" cy="492.685" r="5.415" fill="#e6e6e6"/><rect x="974.53" y="498.09" width="10.83" height="10.83" fill="#e7e7e7"/><rect x="1093.640625" y="487.265625" width="21.65625" height="21.65625" fill="#f5f5f5"/><rect x="1093.64" y="498.09" width="10.83" height="10.83" fill="#f0f0f0"/><rect x="1310.203125" y="487.265625" width="21.65625" height="21.65625" fill="#f5f5f5"/><g transform="translate(1310.2,487.27) scale(0.5415) rotate(0)"><rect width="20" height="2" fill="#e9e9e9"/><rect y="4" width="20" height="2" fill="#e9e9e9"/><rect y="8" width="20" height="2" fill="#e9e9e9"/><rect y="12" width="20" height="2" fill="#e9e9e9"/><rect y="16" width="20" height="2" fill="#e9e9e9"/></g><g transform="translate(1321.03,487.27) scale(0.5415) rotate(0)"><path fill-rule="evenodd" clip-rule="evenodd" d="M10 20C15.5228 20 20 15.5228 20 10C20 4.47715 15.5228 0 10 0C4.47715 0 0 4.47715 0 10C0 15.5228 4.47715 20 10 20ZM10 17C13.866 17 17 13.866 17 10C17 6.13401 13.866 3 10 3C6.13401 3 3 6.13401 3 10C3 13.866 6.13401 17 10 17Z" fill="#e6e6e6"/></g><rect x="1321.03" y="498.09" width="10.83" height="10.83" fill="#e1e1e1"/><rect x="1353.515625" y="487.265625" width="21.65625" height="21.65625" fill="#f5f5f5"/><rect x="1353.52" y="487.27" width="10.83" height="10.83" fill="#e4e4e4"/><rect x="54.140625" y="530.578125" width="21.65625" height="21.65625" fill="#f5f5f5"/><g transform="translate(64.97,530.58) scale(0.5415) rotate(0)"><rect width="20" height="2" fill="#ebebeb"/><rect y="4" width="20" height="2" fill="#ebebeb"/><rect y="8" width="20" height="2" fill="#ebebeb"/><rect y="12" width="20" height="2" fill="#ebebeb"/><rect y="16" width="20" height="2" fill="#ebebeb"/></g><g transform="translate(64.97,541.41) scale(0.5415) rotate(0)"><rect width="2" height="20" fill="#ececec"/><rect x="4" width="2" height="20" fill="#ececec"/><rect x="8" width="2" height="20" fill="#ececec"/><rect x="12" width="2" height="20" fill="#ececec"/><rect x="16" width="2" height="20" fill="#ececec"/></g><rect x="140.765625" y="530.578125" width="21.65625" height="21.65625" fill="#f5f5f5"/><circle cx="157.005" cy="535.995" r="5.415" fill="#e2e2e2"/><polygon points="140.77,541.41 151.60000000000002,552.24 140.77,552.24" fill="#f2f2f2"/><rect x="184.078125" y="530.578125" width="21.65625" height="21.65625" fill="#f5f5f5"/><g transform="translate(194.91,541.41) scale(0.5415) rotate(0)"><path fill-rule="evenodd" clip-rule="evenodd" d="M10 20C15.5228 20 20 15.5228 20 10C20 4.47715 15.5228 0 10 0C4.47715 0 0 4.47715 0 10C0 15.5228 4.47715 20 10 20ZM10 17C13.866 17 17 13.866 17 10C17 6.13401 13.866 3 10 3C6.13401 3 3 6.13401 3 10C3 13.866 6.13401 17 10 17Z" fill="#e3e3e3"/></g><rect x="270.703125" y="530.578125" width="21.65625" height="21.65625" fill="#f5f5f5"/><g transform="translate(270.7,530.58) scale(0.5415) rotate(0)"><rect width="20" height="2" fill="#d9d9d9"/><rect y="4" width="20" height="2" fill="#d9d9d9"/><rect y="8" width="20" height="2" fill="#d9d9d9"/><rect y="12" width="20" height="2" fill="#d9d9d9"/><rect y="16" width="20" height="2" fill="#d9d9d9"/></g><g transform="translate(281.53,530.58) scale(0.5415) rotate(0)"><path fill-rule="evenodd" clip-rule="evenodd" d="M10 20C15.5228 20 20 15.5228 20 10C20 4.47715 15.5228 0 10 0C4.47715 0 0 4.47715 0 10C0 15.5228 4.47715 20 10 20ZM10 17C13.866 17 17 13.866 17 10C17 6.13401 13.866 3 10 3C6.13401 3 3 6.13401 3 10C3 13.866 6.13401 17 10 17Z" fill="#dadada"/></g><rect x="400.640625" y="530.578125" width="21.65625" height="21.65625" fill="#f5f5f5"/><polygon points="400.64,541.41 411.46999999999997,541.41 400.64,552.24" fill="#eaeaea"/><rect x="443.953125" y="530.578125" width="21.65625" height="21.65625" fill="#f5f5f5"/><circle cx="449.365" cy="535.995" r="5.415" fill="#ededed"/><rect x="443.95" y="541.41" width="10.83" height="10.83" fill="#e7e7e7"/><rect x="617.203125" y="530.578125" width="21.65625" height="21.65625" fill="#f5f5f5"/><polygon points="617.2,530.58 628.0300000000001,541.4100000000001 617.2,541.4100000000001" fill="#e0e0e0"/><circle cx="622.615" cy="546.8249999999999" r="5.415" fill="#ededed"/><rect x="747.140625" y="530.578125" width="21.65625" height="21.65625" fill="#f5f5f5"/><g transform="translate(757.97,541.41) scale(0.5415) rotate(0)"><rect width="2" height="20" fill="#f4f4f4"/><rect x="4" width="2" height="20" fill="#f4f4f4"/><rect x="8" width="2" height="20" fill="#f4f4f4"/><rect x="12" width="2" height="20" fill="#f4f4f4"/><rect x="16" width="2" height="20" fill="#f4f4f4"/></g><rect x="790.453125" y="530.578125" width="21.65625" height="21.65625" fill="#f5f5f5"/><circle cx="795.865" cy="535.995" r="5.415" fill="#e7e7e7"/><g transform="translate(801.28,530.58) scale(0.5415) rotate(0)"><path fill-rule="evenodd" clip-rule="evenodd" d="M10 20C15.5228 20 20 15.5228 20 10C20 4.47715 15.5228 0 10 0C4.47715 0 0 4.47715 0 10C0 15.5228 4.47715 20 10 20ZM10 17C13.866 17 17 13.866 17 10C17 6.13401 13.866 3 10 3C6.13401 3 3 6.13401 3 10C3 13.866 6.13401 17 10 17Z" fill="#ececec"/></g><rect x="877.078125" y="530.578125" width="21.65625" height="21.65625" fill="#f5f5f5"/><g transform="translate(887.91,541.41) scale(0.5415) rotate(0)"><path fill-rule="evenodd" clip-rule="evenodd" d="M10 20C15.5228 20 20 15.5228 20 10C20 4.47715 15.5228 0 10 0C4.47715 0 0 4.47715 0 10C0 15.5228 4.47715 20 10 20ZM10 17C13.866 17 17 13.866 17 10C17 6.13401 13.866 3 10 3C6.13401 3 3 6.13401 3 10C3 13.866 6.13401 17 10 17Z" fill="#d9d9d9"/></g><rect x="920.390625" y="530.578125" width="21.65625" height="21.65625" fill="#f5f5f5"/><g transform="translate(920.39,541.41) scale(0.5415) rotate(0)"><path fill-rule="evenodd" clip-rule="evenodd" d="M10 20C15.5228 20 20 15.5228 20 10C20 4.47715 15.5228 0 10 0C4.47715 0 0 4.47715 0 10C0 15.5228 4.47715 20 10 20ZM10 17C13.866 17 17 13.866 17 10C17 6.13401 13.866 3 10 3C6.13401 3 3 6.13401 3 10C3 13.866 6.13401 17 10 17Z" fill="#ededed"/></g><rect x="1050.328125" y="530.578125" width="21.65625" height="21.65625" fill="#f5f5f5"/><g transform="translate(1061.16,530.58) scale(0.5415) rotate(0)"><path fill-rule="evenodd" clip-rule="evenodd" d="M10 20C15.5228 20 20 15.5228 20 10C20 4.47715 15.5228 0 10 0C4.47715 0 0 4.47715 0 10C0 15.5228 4.47715 20 10 20ZM10 17C13.866 17 17 13.866 17 10C17 6.13401 13.866 3 10 3C6.13401 3 3 6.13401 3 10C3 13.866 6.13401 17 10 17Z" fill="#e2e2e2"/></g><g transform="translate(1061.16,541.41) scale(0.5415) rotate(0)"><rect width="20" height="2" fill="#f2f2f2"/><rect y="4" width="20" height="2" fill="#f2f2f2"/><rect y="8" width="20" height="2" fill="#f2f2f2"/><rect y="12" width="20" height="2" fill="#f2f2f2"/><rect y="16" width="20" height="2" fill="#f2f2f2"/></g><rect x="1310.203125" y="530.578125" width="21.65625" height="21.65625" fill="#f5f5f5"/><rect x="1353.515625" y="530.578125" width="21.65625" height="21.65625" fill="#f5f5f5"/><rect x="1353.52" y="541.41" width="10.83" height="10.83" fill="#dbdbdb"/><rect x="1364.34" y="541.41" width="10.83" height="10.83" fill="#e5e5e5"/><rect x="10.828125" y="573.890625" width="21.65625" height="21.65625" fill="#f5f5f5"/><polygon points="10.83,573.89 21.66,573.89 21.66,584.72" fill="#e4e4e4"/><g transform="translate(10.83,584.72) scale(0.5415) rotate(0)"><path fill-rule="evenodd" clip-rule="evenodd" d="M10 20C15.5228 20 20 15.5228 20 10C20 4.47715 15.5228 0 10 0C4.47715 0 0 4.47715 0 10C0 15.5228 4.47715 20 10 20ZM10 17C13.866 17 17 13.866 17 10C17 6.13401 13.866 3 10 3C6.13401 3 3 6.13401 3 10C3 13.866 6.13401 17 10 17Z" fill="#ededed"/></g><rect x="54.140625" y="573.890625" width="21.65625" height="21.65625" fill="#f5f5f5"/><rect x="64.97" y="584.72" width="10.83" height="10.83" fill="#ececec"/><rect x="97.453125" y="573.890625" width="21.65625" height="21.65625" fill="#f5f5f5"/><rect x="108.28" y="573.89" width="10.83" height="10.83" fill="#e9e9e9"/><rect x="357.328125" y="573.890625" width="21.65625" height="21.65625" fill="#f5f5f5"/><g transform="translate(357.33,584.72) scale(0.5415) rotate(0)"><rect width="20" height="2" fill="#e0e0e0"/><rect y="4" width="20" height="2" fill="#e0e0e0"/><rect y="8" width="20" height="2" fill="#e0e0e0"/><rect y="12" width="20" height="2" fill="#e0e0e0"/><rect y="16" width="20" height="2" fill="#e0e0e0"/></g><rect x="660.515625" y="573.890625" width="21.65625" height="21.65625" fill="#f5f5f5"/><g transform="translate(660.52,573.89) scale(0.5415) rotate(0)"><rect width="2" height="20" fill="#e2e2e2"/><rect x="4" width="2" height="20" fill="#e2e2e2"/><rect x="8" width="2" height="20" fill="#e2e2e2"/><rect x="12" width="2" height="20" fill="#e2e2e2"/><rect x="16" width="2" height="20" fill="#e2e2e2"/></g><g transform="translate(671.34,573.89) scale(0.5415) rotate(0)"><rect width="2" height="20" fill="#ececec"/><rect x="4" width="2" height="20" fill="#ececec"/><rect x="8" width="2" height="20" fill="#ececec"/><rect x="12" width="2" height="20" fill="#ececec"/><rect x="16" width="2" height="20" fill="#ececec"/></g><g transform="translate(671.34,584.72) scale(0.5415) rotate(0)"><rect width="2" height="20" fill="#ebebeb"/><rect x="4" width="2" height="20" fill="#ebebeb"/><rect x="8" width="2" height="20" fill="#ebebeb"/><rect x="12" width="2" height="20" fill="#ebebeb"/><rect x="16" width="2" height="20" fill="#ebebeb"/></g><rect x="833.765625" y="573.890625" width="21.65625" height="21.65625" fill="#f5f5f5"/><g transform="translate(833.77,584.72) scale(0.5415) rotate(0)"><rect width="2" height="20" fill="#e7e7e7"/><rect x="4" width="2" height="20" fill="#e7e7e7"/><rect x="8" width="2" height="20" fill="#e7e7e7"/><rect x="12" width="2" height="20" fill="#e7e7e7"/><rect x="16" width="2" height="20" fill="#e7e7e7"/></g><rect x="1050.328125" y="573.890625" width="21.65625" height="21.65625" fill="#f5f5f5"/><g transform="translate(1061.16,573.89) scale(0.5415) rotate(0)"><rect width="20" height="2" fill="#dadada"/><rect y="4" width="20" height="2" fill="#dadada"/><rect y="8" width="20" height="2" fill="#dadada"/><rect y="12" width="20" height="2" fill="#dadada"/><rect y="16" width="20" height="2" fill="#dadada"/></g><polygon points="1050.33,584.72 1061.1599999999999,584.72 1061.1599999999999,595.5500000000001" fill="#eeeeee"/><rect x="1353.515625" y="573.890625" width="21.65625" height="21.65625" fill="#f5f5f5"/><rect x="10.828125" y="617.203125" width="21.65625" height="21.65625" fill="#f5f5f5"/><circle cx="27.075" cy="622.615" r="5.415" fill="#e2e2e2"/><rect x="97.453125" y="617.203125" width="21.65625" height="21.65625" fill="#f5f5f5"/><g transform="translate(108.28,628.03) scale(0.5415) rotate(0)"><rect width="2" height="20" fill="#f2f2f2"/><rect x="4" width="2" height="20" fill="#f2f2f2"/><rect x="8" width="2" height="20" fill="#f2f2f2"/><rect x="12" width="2" height="20" fill="#f2f2f2"/><rect x="16" width="2" height="20" fill="#f2f2f2"/></g><rect x="140.765625" y="617.203125" width="21.65625" height="21.65625" fill="#f5f5f5"/><circle cx="146.185" cy="622.615" r="5.415" fill="#ebebeb"/><rect x="314.015625" y="617.203125" width="21.65625" height="21.65625" fill="#f5f5f5"/><rect x="324.84" y="617.2" width="10.83" height="10.83" fill="#dedede"/><rect x="400.640625" y="617.203125" width="21.65625" height="21.65625" fill="#f5f5f5"/><g transform="translate(400.64,617.2) scale(0.5415) rotate(0)"><path fill-rule="evenodd" clip-rule="evenodd" d="M10 20C15.5228 20 20 15.5228 20 10C20 4.47715 15.5228 0 10 0C4.47715 0 0 4.47715 0 10C0 15.5228 4.47715 20 10 20ZM10 17C13.866 17 17 13.866 17 10C17 6.13401 13.866 3 10 3C6.13401 3 3 6.13401 3 10C3 13.866 6.13401 17 10 17Z" fill="#f0f0f0"/></g><rect x="487.265625" y="617.203125" width="21.65625" height="21.65625" fill="#f5f5f5"/><rect x="498.09" y="628.03" width="10.83" height="10.83" fill="#dadada"/><rect x="703.828125" y="617.203125" width="21.65625" height="21.65625" fill="#f5f5f5"/><rect x="703.83" y="628.03" width="10.83" height="10.83" fill="#f2f2f2"/><circle cx="720.0749999999999" cy="633.4449999999999" r="5.415" fill="#efefef"/><rect x="877.078125" y="617.203125" width="21.65625" height="21.65625" fill="#f5f5f5"/><rect x="1093.640625" y="617.203125" width="21.65625" height="21.65625" fill="#f5f5f5"/><g transform="translate(1093.64,628.03) scale(0.5415) rotate(0)"><rect width="2" height="20" fill="#f3f3f3"/><rect x="4" width="2" height="20" fill="#f3f3f3"/><rect x="8" width="2" height="20" fill="#f3f3f3"/><rect x="12" width="2" height="20" fill="#f3f3f3"/><rect x="16" width="2" height="20" fill="#f3f3f3"/></g><rect x="1353.515625" y="617.203125" width="21.65625" height="21.65625" fill="#f5f5f5"/><g transform="translate(1353.52,617.2) scale(0.5415) rotate(0)"><rect width="2" height="20" fill="#e4e4e4"/><rect x="4" width="2" height="20" fill="#e4e4e4"/><rect x="8" width="2" height="20" fill="#e4e4e4"/><rect x="12" width="2" height="20" fill="#e4e4e4"/><rect x="16" width="2" height="20" fill="#e4e4e4"/></g><polygon points="1353.52,628.03 1364.35,628.03 1353.52,638.86" fill="#ebebeb"/><circle cx="1369.7549999999999" cy="633.4449999999999" r="5.415" fill="#e9e9e9"/><rect x="1396.828125" y="617.203125" width="21.65625" height="21.65625" fill="#f5f5f5"/><rect x="10.828125" y="660.515625" width="21.65625" height="21.65625" fill="#f5f5f5"/><polygon points="21.66,660.52 32.49,660.52 21.66,671.35" fill="#dfdfdf"/><rect x="10.83" y="671.34" width="10.83" height="10.83" fill="#dadada"/><rect x="270.703125" y="660.515625" width="21.65625" height="21.65625" fill="#f5f5f5"/><rect x="270.7" y="660.52" width="10.83" height="10.83" fill="#e1e1e1"/><circle cx="286.945" cy="676.755" r="5.415" fill="#f2f2f2"/><rect x="314.015625" y="660.515625" width="21.65625" height="21.65625" fill="#f5f5f5"/><g transform="translate(314.02,660.52) scale(0.5415) rotate(0)"><rect width="2" height="20" fill="#eeeeee"/><rect x="4" width="2" height="20" fill="#eeeeee"/><rect x="8" width="2" height="20" fill="#eeeeee"/><rect x="12" width="2" height="20" fill="#eeeeee"/><rect x="16" width="2" height="20" fill="#eeeeee"/></g><rect x="314.02" y="671.34" width="10.83" height="10.83" fill="#e1e1e1"/><rect x="357.328125" y="660.515625" width="21.65625" height="21.65625" fill="#f5f5f5"/><g transform="translate(368.16,660.52) scale(0.5415) rotate(0)"><rect width="20" height="2" fill="#eaeaea"/><rect y="4" width="20" height="2" fill="#eaeaea"/><rect y="8" width="20" height="2" fill="#eaeaea"/><rect y="12" width="20" height="2" fill="#eaeaea"/><rect y="16" width="20" height="2" fill="#eaeaea"/></g><rect x="357.33" y="671.34" width="10.83" height="10.83" fill="#dedede"/><g transform="translate(368.16,671.34) scale(0.5415) rotate(0)"><rect width="2" height="20" fill="#f4f4f4"/><rect x="4" width="2" height="20" fill="#f4f4f4"/><rect x="8" width="2" height="20" fill="#f4f4f4"/><rect x="12" width="2" height="20" fill="#f4f4f4"/><rect x="16" width="2" height="20" fill="#f4f4f4"/></g><rect x="400.640625" y="660.515625" width="21.65625" height="21.65625" fill="#f5f5f5"/><g transform="translate(400.64,660.52) scale(0.5415) rotate(0)"><path fill-rule="evenodd" clip-rule="evenodd" d="M10 20C15.5228 20 20 15.5228 20 10C20 4.47715 15.5228 0 10 0C4.47715 0 0 4.47715 0 10C0 15.5228 4.47715 20 10 20ZM10 17C13.866 17 17 13.866 17 10C17 6.13401 13.866 3 10 3C6.13401 3 3 6.13401 3 10C3 13.866 6.13401 17 10 17Z" fill="#dbdbdb"/></g><g transform="translate(411.47,660.52) scale(0.5415) rotate(0)"><path fill-rule="evenodd" clip-rule="evenodd" d="M10 20C15.5228 20 20 15.5228 20 10C20 4.47715 15.5228 0 10 0C4.47715 0 0 4.47715 0 10C0 15.5228 4.47715 20 10 20ZM10 17C13.866 17 17 13.866 17 10C17 6.13401 13.866 3 10 3C6.13401 3 3 6.13401 3 10C3 13.866 6.13401 17 10 17Z" fill="#eaeaea"/></g><polygon points="411.47,671.34 422.3,671.34 411.47,682.1700000000001" fill="#f3f3f3"/><rect x="487.265625" y="660.515625" width="21.65625" height="21.65625" fill="#f5f5f5"/><rect x="573.890625" y="660.515625" width="21.65625" height="21.65625" fill="#f5f5f5"/><rect x="617.203125" y="660.515625" width="21.65625" height="21.65625" fill="#f5f5f5"/><g transform="translate(617.2,671.34) scale(0.5415) rotate(0)"><rect width="20" height="2" fill="#dadada"/><rect y="4" width="20" height="2" fill="#dadada"/><rect y="8" width="20" height="2" fill="#dadada"/><rect y="12" width="20" height="2" fill="#dadada"/><rect y="16" width="20" height="2" fill="#dadada"/></g><rect x="628.03" y="671.34" width="10.83" height="10.83" fill="#e7e7e7"/><rect x="790.453125" y="660.515625" width="21.65625" height="21.65625" fill="#f5f5f5"/><g transform="translate(801.28,671.34) scale(0.5415) rotate(0)"><path fill-rule="evenodd" clip-rule="evenodd" d="M10 20C15.5228 20 20 15.5228 20 10C20 4.47715 15.5228 0 10 0C4.47715 0 0 4.47715 0 10C0 15.5228 4.47715 20 10 20ZM10 17C13.866 17 17 13.866 17 10C17 6.13401 13.866 3 10 3C6.13401 3 3 6.13401 3 10C3 13.866 6.13401 17 10 17Z" fill="#e3e3e3"/></g><rect x="833.765625" y="660.515625" width="21.65625" height="21.65625" fill="#f5f5f5"/><circle cx="850.005" cy="665.935" r="5.415" fill="#ededed"/><polygon points="844.59,671.34 855.4200000000001,671.34 855.4200000000001,682.1700000000001" fill="#eeeeee"/><rect x="920.390625" y="660.515625" width="21.65625" height="21.65625" fill="#f5f5f5"/><rect x="1136.953125" y="660.515625" width="21.65625" height="21.65625" fill="#f5f5f5"/><circle cx="1142.365" cy="665.935" r="5.415" fill="#dddddd"/><g transform="translate(1136.95,671.34) scale(0.5415) rotate(0)"><rect width="2" height="20" fill="#dddddd"/><rect x="4" width="2" height="20" fill="#dddddd"/><rect x="8" width="2" height="20" fill="#dddddd"/><rect x="12" width="2" height="20" fill="#dddddd"/><rect x="16" width="2" height="20" fill="#dddddd"/></g><rect x="1223.578125" y="660.515625" width="21.65625" height="21.65625" fill="#f5f5f5"/><polygon points="1245.24,671.34 1245.24,682.1700000000001 1234.41,682.1700000000001" fill="#f5f5f5"/><rect x="1310.203125" y="660.515625" width="21.65625" height="21.65625" fill="#f5f5f5"/><g transform="translate(1310.2,660.52) scale(0.5415) rotate(0)"><rect width="20" height="2" fill="#dfdfdf"/><rect y="4" width="20" height="2" fill="#dfdfdf"/><rect y="8" width="20" height="2" fill="#dfdfdf"/><rect y="12" width="20" height="2" fill="#dfdfdf"/><rect y="16" width="20" height="2" fill="#dfdfdf"/></g><rect x="1396.828125" y="660.515625" width="21.65625" height="21.65625" fill="#f5f5f5"/><g transform="translate(1407.66,671.34) scale(0.5415) rotate(0)"><rect width="2" height="20" fill="#e1e1e1"/><rect x="4" width="2" height="20" fill="#e1e1e1"/><rect x="8" width="2" height="20" fill="#e1e1e1"/><rect x="12" width="2" height="20" fill="#e1e1e1"/><rect x="16" width="2" height="20" fill="#e1e1e1"/></g></g></svg>